<?xml version="1.0" encoding="UTF-8" standalone="no"?>
<svg
   xml:space="preserve"
   style="enable-background:new 0 0 512 512"
   viewBox="0 0 512 512"
   version="1.1"
   id="svg2"
   sodipodi:docname="nixvim_cog.svg"
   inkscape:version="1.3.2 (091e20ef0f, 2023-11-25, custom)"
   xmlns:inkscape="http://www.inkscape.org/namespaces/inkscape"
   xmlns:sodipodi="http://sodipodi.sourceforge.net/DTD/sodipodi-0.dtd"
   xmlns="http://www.w3.org/2000/svg"
   xmlns:svg="http://www.w3.org/2000/svg"><defs
     id="defs2" /><sodipodi:namedview
     id="namedview2"
     pagecolor="#ffffff"
     bordercolor="#000000"
     borderopacity="0.25"
     inkscape:showpageshadow="2"
     inkscape:pageopacity="0.0"
     inkscape:pagecheckerboard="0"
     inkscape:deskcolor="#d1d1d1"
     inkscape:zoom="0.89447135"
     inkscape:cx="182.78953"
     inkscape:cy="282.84863"
     inkscape:window-width="1236"
     inkscape:window-height="676"
     inkscape:window-x="0"
     inkscape:window-y="0"
     inkscape:window-maximized="1"
     inkscape:current-layer="svg2" /><path
     fill="#4588a9"
     d="m 509.4804,303.36719 v -92.13192 l -57.18535,-9.53095 c -3.17696,-12.70782 -9.53091,-25.41569 -19.06176,-44.47748 L 468.1799,109.57238 401.46362,42.856127 353.80916,77.802742 C 337.92435,68.271832 322.03952,61.917934 309.33168,58.740956 L 302.97771,1.5555774 H 210.84579 L 201.3149,58.740956 c -15.88486,3.176978 -28.59268,9.530876 -44.47751,19.061786 L 109.18292,42.856127 42.466659,109.57238 74.236322,157.22684 c -9.530877,15.88481 -12.707854,28.59268 -19.061787,44.47748 l -54.00838,6.35399 v 92.13194 l 57.185335,9.53088 c 3.176978,15.88482 9.530933,28.59269 19.061809,44.47748 l -31.769663,47.65446 66.716274,66.71628 47.65446,-31.76966 c 12.70785,6.35391 28.59265,12.70785 44.47748,19.06181 l 9.53088,57.18533 h 95.30895 l 9.53087,-57.18533 c 15.88485,-3.17699 28.59272,-9.53094 44.47752,-19.06181 l 47.65447,34.94664 66.7162,-66.71627 -34.9466,-47.65447 c 9.53091,-15.88483 15.88482,-31.76964 19.0618,-44.47751 z m -254.15708,47.65446 c -54.00842,0 -95.30895,-41.30052 -95.30895,-95.3089 0,-54.00843 41.30053,-95.30893 95.30895,-95.30893 54.00836,0 95.30891,41.3005 95.30891,95.30893 0,54.00838 -41.30055,95.3089 -95.30891,95.3089 z"
     id="path1-3"
     style="enable-background:new 0 0 512 512;fill:#21485b;fill-opacity:1;stroke-width:31.7697" /><path
     d="m 117.48918,102.10469 h 23.5982 L 361.21567,421.35258 H 307.98386 L 170.24904,218.63689 v 202.71569 h -52.75986 z"
     style="fill:#7eb6e1;stroke-width:0.715096"
     id="path1" /><path
     d="m 395.54033,421.35258 h -23.5982 L 151.81384,102.10469 H 205.0385 L 342.77333,304.82038 V 102.10469 h 52.767 z"
     style="fill:#4e71b6;stroke-width:0.715096"
     id="path2" /><g
     inkscape:groupmode="layer"
     id="layer1"
     inkscape:label="Layer 1" /></svg>
